<?xml version="1.0" encoding="UTF-8"?>
<svg width="90px" height="90px" viewBox="0 0 90 90" version="1.1" xmlns="http://www.w3.org/2000/svg" xmlns:xlink="http://www.w3.org/1999/xlink">
    <!-- Generator: Sketch 44.1 (41455) - http://www.bohemiancoding.com/sketch -->
    <title>Tool_menu_green</title>
    <desc>Created with Sketch.</desc>
    <defs></defs>
    <g id="01.-Current-design" stroke="none" stroke-width="1" fill="none" fill-rule="evenodd">
        <g id="Tool_menu_green" fill="#4BA82E">
            <g id="Group">
                <path d="M2,21.4957163 L19.4957163,21.4957163 L19.4957163,21.4957163 C20.6002858,21.4957163 21.4957163,20.6002858 21.4957163,19.4957163 L21.4957163,2 L21.4957163,2 C21.4957163,0.8954305 20.6002858,1.53715886e-15 19.4957163,-2.22044605e-16 L2,0 L2,-2.22044605e-16 C0.8954305,-1.91384796e-17 -3.57315355e-16,0.8954305 -2.22044605e-16,2 L0,19.4957163 L-2.22044605e-16,19.4957163 C1.87533573e-15,20.6002858 0.8954305,21.4957163 2,21.4957163 Z" id="Fill-11"></path>
                <path d="M2,55.6249298 L19.4957163,55.6249298 L19.4957163,55.6249298 C20.6002858,55.6249298 21.4957163,54.7294993 21.4957163,53.6249298 L21.4957163,36.1292135 L21.4957163,36.1292135 C21.4957163,35.024644 20.6002858,34.1292135 19.4957163,34.1292135 L2,34.1292135 L2,34.1292135 C0.8954305,34.1292135 -1.3527075e-16,35.024644 0,36.1292135 L0,53.6249298 L0,53.6249298 C1.3527075e-16,54.7294993 0.8954305,55.6249298 2,55.6249298 Z" id="Fill-12"></path>
                <path d="M2,89.7541433 L19.4957163,89.7541433 L19.4957163,89.7541433 C20.6002858,89.7541433 21.4957163,88.8587128 21.4957163,87.7541433 L21.4957163,70.258427 L21.4957163,70.258427 C21.4957163,69.1538575 20.6002858,68.258427 19.4957163,68.258427 L2,68.258427 L2,68.258427 C0.8954305,68.258427 -1.3527075e-16,69.1538575 0,70.258427 L0,87.7541433 L0,87.7541433 C1.3527075e-16,88.8587128 0.8954305,89.7541433 2,89.7541433 Z" id="Fill-13"></path>
                <path d="M36.1292135,21.4957163 L53.6249298,21.4957163 L53.6249298,21.4957163 C54.7294993,21.4957163 55.6249298,20.6002858 55.6249298,19.4957163 L55.6249298,2 L55.6249298,2 C55.6249298,0.8954305 54.7294993,-2.02906125e-16 53.6249298,0 L36.1292135,0 L36.1292135,0 C35.024644,2.02906125e-16 34.1292135,0.8954305 34.1292135,2 L34.1292135,19.4957163 L34.1292135,19.4957163 C34.1292135,20.6002858 35.024644,21.4957163 36.1292135,21.4957163 Z" id="Fill-14"></path>
                <path d="M36.1292135,55.6249298 L53.6249298,55.6249298 L53.6249298,55.6249298 C54.7294993,55.6249298 55.6249298,54.7294993 55.6249298,53.6249298 L55.6249298,36.1292135 L55.6249298,36.1292135 C55.6249298,35.024644 54.7294993,34.1292135 53.6249298,34.1292135 L36.1292135,34.1292135 L36.1292135,34.1292135 C35.024644,34.1292135 34.1292135,35.024644 34.1292135,36.1292135 L34.1292135,53.6249298 L34.1292135,53.6249298 C34.1292135,54.7294993 35.024644,55.6249298 36.1292135,55.6249298 Z" id="Fill-15"></path>
                <path d="M36.1292135,89.7541433 L53.6249298,89.7541433 L53.6249298,89.7541433 C54.7294993,89.7541433 55.6249298,88.8587128 55.6249298,87.7541433 L55.6249298,70.258427 L55.6249298,70.258427 C55.6249298,69.1538575 54.7294993,68.258427 53.6249298,68.258427 L36.1292135,68.258427 L36.1292135,68.258427 C35.024644,68.258427 34.1292135,69.1538575 34.1292135,70.258427 L34.1292135,87.7541433 L34.1292135,87.7541433 C34.1292135,88.8587128 35.024644,89.7541433 36.1292135,89.7541433 Z" id="Fill-16"></path>
                <path d="M70.258427,21.4957163 L87.7541433,21.4957163 L87.7541433,21.4957163 C88.8587128,21.4957163 89.7541433,20.6002858 89.7541433,19.4957163 L89.7541433,2 L89.7541433,2 C89.7541433,0.8954305 88.8587128,-2.02906125e-16 87.7541433,0 L70.258427,0 L70.258427,0 C69.1538575,2.02906125e-16 68.258427,0.8954305 68.258427,2 L68.258427,19.4957163 L68.258427,19.4957163 C68.258427,20.6002858 69.1538575,21.4957163 70.258427,21.4957163 Z" id="Fill-17"></path>
                <path d="M70.258427,55.6249298 L87.7541433,55.6249298 L87.7541433,55.6249298 C88.8587128,55.6249298 89.7541433,54.7294993 89.7541433,53.6249298 L89.7541433,36.1292135 L89.7541433,36.1292135 C89.7541433,35.024644 88.8587128,34.1292135 87.7541433,34.1292135 L70.258427,34.1292135 L70.258427,34.1292135 C69.1538575,34.1292135 68.258427,35.024644 68.258427,36.1292135 L68.258427,53.6249298 L68.258427,53.6249298 C68.258427,54.7294993 69.1538575,55.6249298 70.258427,55.6249298 Z" id="Fill-18"></path>
                <path d="M70.258427,89.7541433 L87.7541433,89.7541433 L87.7541433,89.7541433 C88.8587128,89.7541433 89.7541433,88.8587128 89.7541433,87.7541433 L89.7541433,70.258427 L89.7541433,70.258427 C89.7541433,69.1538575 88.8587128,68.258427 87.7541433,68.258427 L70.258427,68.258427 L70.258427,68.258427 C69.1538575,68.258427 68.258427,69.1538575 68.258427,70.258427 L68.258427,87.7541433 L68.258427,87.7541433 C68.258427,88.8587128 69.1538575,89.7541433 70.258427,89.7541433 Z" id="Fill-19"></path>
            </g>
        </g>
    </g>
</svg>